<mxfile host="app.diagrams.net" modified="2023-11-09T20:16:17.622Z" agent="Mozilla/5.0 (X11; Linux x86_64; rv:109.0) Gecko/20100101 Firefox/113.0" version="21.6.6" etag="EIT-CMnzDyjm2g18_5IG" type="github">
  <diagram name="Page-1" id="Vfh5ygNFvdo8IsHBlxW0">
    <mxGraphModel>
      <root>
        <mxCell id="0" />
        <mxCell id="1" parent="0" />
      </root>
    </mxGraphModel>
  </diagram>
</mxfile>
